<?xml version="1.0" encoding="UTF-8" standalone="no"?>
<svg
   fill="#000000"
   viewBox="0 0 62.635883 16.22892"
   width="313.17941"
   height="81.1446"
   version="1.1"
   id="svg4"
   sodipodi:docname="mailchimp.svg"
   inkscape:version="1.2.1 (9c6d41e410, 2022-07-14)"
   xml:space="preserve"
   xmlns:inkscape="http://www.inkscape.org/namespaces/inkscape"
   xmlns:sodipodi="http://sodipodi.sourceforge.net/DTD/sodipodi-0.dtd"
   xmlns="http://www.w3.org/2000/svg"
   xmlns:svg="http://www.w3.org/2000/svg"><defs
     id="defs8" /><sodipodi:namedview
     id="namedview6"
     pagecolor="#ffffff"
     bordercolor="#000000"
     borderopacity="0.25"
     inkscape:showpageshadow="2"
     inkscape:pageopacity="0.0"
     inkscape:pagecheckerboard="0"
     inkscape:deskcolor="#d1d1d1"
     showgrid="false"
     inkscape:zoom="1.564"
     inkscape:cx="-40.601023"
     inkscape:cy="108.05627"
     inkscape:window-width="3440"
     inkscape:window-height="1347"
     inkscape:window-x="0"
     inkscape:window-y="0"
     inkscape:window-maximized="1"
     inkscape:current-layer="svg4" /><path
     style="fill:#000000;stroke-width:0.0316381"
     d="m 6.7208693,14.805069 c -0.875672,-0.134053 -1.696611,-0.45579 -2.357036,-0.92374 -0.610976,-0.432911 -1.205049,-1.123359 -1.519354,-1.765821 l -0.109613,-0.224061 -0.245655,-0.03579 c -0.448193,-0.06533 -0.844251,-0.269036 -1.188965,-0.611546 -0.564979,-0.561369 -0.735063,-1.2924973 -0.495882,-2.1316143 0.01401,-0.04915 -0.02277,-0.09613 -0.164897,-0.210525 -0.302308,-0.243332 -0.424097,-0.3804872 -0.522459,-0.5883592 -0.243064,-0.513683 -0.106048,-1.295042 0.398083,-2.270129 0.460083,-0.889899 1.039233,-1.666317 1.883758,-2.525411 0.840648,-0.855146 1.55423,-1.393593 2.362705,-1.78281 0.486454,-0.234195 0.784605,-0.305226 1.212258,-0.288818 0.452306,0.01735 0.569612,0.079 1.049224,0.551389 0.200993,0.197962 0.381844,0.359938 0.401888,0.359938 0.02004,0 0.197286,-0.06592 0.393871,-0.146475 0.542811,-0.222437 1.002956,-0.33021 1.498469,-0.35096 0.8340657,-0.0349 1.3095997,0.156141 1.5660977,0.629242 0.105715,0.194983 0.108578,0.209777 0.106126,0.548408 -0.0022,0.310817 -0.0134,0.377165 -0.104301,0.620665 -0.123058,0.329644 -0.333465,0.677049 -0.634986,1.048435 l -0.224912,0.277028 0.125607,0.166364 c 0.323791,0.428859 0.441792,0.852861 0.471505,1.69421 l 0.02159,0.611252 0.397743,0.132869 c 0.447444,0.149468 0.71449,0.295396 0.869335,0.475047 0.274007,0.317909 0.32476,0.7319382 0.137215,1.1193582 l -0.06594,0.136205 0.100252,0.31223 c 0.0904,0.281561 0.108733,0.313923 0.186577,0.329495 0.09877,0.01974 0.2397,0.1498433 0.313808,0.2896643 0.07676,0.144827 0.08917,0.645775 0.02403,0.970175 -0.176381,0.878425 -0.593223,1.622678 -1.275738,2.277773 -0.731799,0.702397 -1.6768577,1.14432 -2.7952767,1.307103 -0.419063,0.06099 -1.414408,0.06057 -1.815128,-9.09e-4 z m 2.631724,-1.328714 c 0.7737377,-0.139027 1.4786617,-0.50398 2.0109067,-1.041085 0.426569,-0.430459 0.688763,-0.904594 0.804953,-1.455621 0.08195,-0.388619 0.01114,-0.601352 -0.212025,-0.637042 -0.08422,-0.01348 -0.126012,-0.03645 -0.126012,-0.06931 0,-0.08739 -0.131101,-0.5379983 -0.173328,-0.5957473 -0.03858,-0.05276 -0.04716,-0.05132 -0.147373,0.02461 -0.348259,0.263871 -1.031749,0.5738373 -1.5618887,0.7083153 -0.564347,0.143158 -0.977242,0.182178 -1.676692,0.158448 -0.915989,-0.03106 -0.867384,-0.03392 -0.957873,0.05655 -0.0438,0.04379 -0.07134,0.09984 -0.06157,0.125284 0.0179,0.04664 0.340616,0.14415 0.718887,0.217178 0.116004,0.02241 0.457339,0.04037 0.783044,0.04127 0.317567,9.1e-4 0.577395,0.01174 0.577395,0.02418 -2e-6,0.04239 -0.113768,0.0836 -0.379294,0.137403 -0.351322,0.07119 -1.100012,0.04866 -1.471397,-0.04426 -0.139133,-0.03481 -0.258506,-0.05776 -0.265273,-0.051 -0.02963,0.02962 0.07623,0.212312 0.171527,0.295976 0.342985,0.301145 1.349435,0.406639 2.150083,0.22537 0.5888857,-0.133328 1.3026617,-0.418107 1.7900967,-0.71421 0.105047,-0.06381 0.198844,-0.108166 0.20844,-0.09857 0.03287,0.03289 -0.309134,0.362792 -0.52903,0.510329 -0.679849,0.456125 -1.5056587,0.69156 -2.4344677,0.694054 -0.415284,9.1e-4 -0.528182,-0.0095 -0.737142,-0.06932 -0.664902,-0.190346 -0.971314,-0.496867 -0.971314,-0.971666 0,-0.223331 0.07721,-0.430497 0.209882,-0.563169 0.187446,-0.187451 0.238907,-0.197155 0.815377,-0.15375 1.369578,0.103126 2.7815737,-0.2792173 3.4785917,-0.9419493 0.378261,-0.359651 0.426929,-0.6787392 0.14269,-0.9355372 -0.15731,-0.142118 -0.373116,-0.240857 -0.791365,-0.362085 -0.349958,-0.101434 -0.459495,-0.160006 -0.500392,-0.267573 -0.01521,-0.04 -0.04416,-0.375106 -0.06433,-0.744631 -0.0396,-0.725861 -0.08139,-0.953383 -0.2147427,-1.169148 -0.118893,-0.192377 -0.258954,-0.26347 -0.48947,-0.248442 -0.144336,0.0094 -0.209926,0.03275 -0.316381,0.112522 -0.58084,0.43532 -0.683601,0.468057 -1.352364,0.430839 -0.828394,-0.04609 -0.938444,-0.03931 -1.178264,0.07293 -0.520785,0.243702 -0.827032,0.738913 -0.826987,1.337262 3.1e-5,0.458597 0.152885,0.803961 0.571064,1.2903112 0.145378,0.169078 0.272834,0.339512 0.283237,0.378747 0.01453,0.05479 -0.02118,0.120836 -0.15397,0.284743 -0.232229,0.286661 -0.317794,0.442657 -0.438101,0.7987123 -0.08791,0.26018 -0.103565,0.356007 -0.116496,0.713228 -0.01805,0.498448 0.04438,0.800642 0.249898,1.209786 0.50752,1.010345 1.802538,1.533845 3.18147,1.286068 z M 8.9221423,8.6983747 c -0.107543,-0.09049 -0.123269,-0.1723902 -0.04762,-0.2480342 0.08061,-0.0806 0.227968,-0.06164 0.332374,0.04276 0.104239,0.104239 0.115187,0.1650382 0.04276,0.2374602 -0.07455,0.07455 -0.217348,0.06051 -0.327511,-0.03219 z m 0.674618,-0.2530072 c -0.09535,-0.228207 0.08181,-0.457241 0.241733,-0.312511 0.08286,0.07498 0.08536,0.300103 0.0041,0.373599 -0.09894,0.08954 -0.19267,0.06625 -0.245876,-0.06109 z m -2.353863,-0.01268 c 0,-0.09612 0.216441,-0.222703 0.415999,-0.243299 0.196064,-0.02026 0.381171,0.04131 0.436795,0.145253 0.03439,0.06426 0.02886,0.06596 -0.213891,0.06596 -0.137055,0 -0.319079,0.02119 -0.4045,0.04711 -0.203976,0.06188 -0.234403,0.05993 -0.234403,-0.01501 z m 0.616942,-0.413433 c -0.269746,-0.110501 -0.47999,-0.118384 -0.799096,-0.02995 -0.281338,0.07796 -0.324055,0.07869 -0.324055,0.0055 0,-0.08066 0.112207,-0.177133 0.31638,-0.272035 0.352868,-0.16401 0.801612,-0.08387 1.038023,0.185388 0.183075,0.208513 0.101838,0.247537 -0.231252,0.111084 z m 1.570463,-0.406443 c -0.103051,-0.239553 -0.151636,-0.60045 -0.09609,-0.7138 0.05841,-0.119184 0.126269,-0.157666 0.231475,-0.13126 0.06605,0.01656 0.105702,0.06403 0.169114,0.202399 0.07017,0.153114 0.08312,0.226681 0.08472,0.481303 l 0.0018,0.300561 -0.161559,0.0094 -0.16156,0.0094 -0.06798,-0.158016 z m -6.344035,3.6943615 c 0.340571,-0.127429 0.549401,-0.422623 0.634952,-0.897558 0.113697,-0.6311933 -0.07513,-1.3110533 -0.464184,-1.6712433 -0.260816,-0.2414702 -0.466302,-0.3162592 -0.823672,-0.2997812 -0.768375,0.03541 -1.273422,0.6467822 -1.225704,1.4836862 0.02207,0.3869803 0.16114,0.6818063 0.459774,0.9746763 0.42755,0.419291 0.973045,0.577007 1.418834,0.41022 z m -0.193604,-0.658817 c -0.218721,-0.09047 -0.288909,-0.370221 -0.18927,-0.7543863 0.05341,-0.205959 0.0534,-0.220396 -3.59e-4,-0.333691 -0.09337,-0.19676 -0.321786,-0.266734 -0.525999,-0.161131 -0.06806,0.03518 -0.12183,0.108001 -0.186933,0.253105 -0.144839,0.322818 -0.283556,0.256904 -0.216355,-0.102804 0.104641,-0.56011 0.690836,-0.796648 1.094955,-0.441824 0.133511,0.117223 0.228109,0.309156 0.228488,0.46358 1.58e-4,0.0609 -0.04206,0.231752 -0.0938,0.379658 -0.05173,0.1479113 -0.09426,0.3006313 -0.09449,0.3393803 -5.61e-4,0.09436 0.128092,0.174589 0.25894,0.161479 0.08736,-0.0087 0.106091,9.1e-4 0.114345,0.05889 0.01726,0.121238 -0.223561,0.20639 -0.389527,0.137744 z M 1.2351383,8.4363545 c 0.202359,-0.200484 0.445128,-0.344522 0.729734,-0.432958 0.167745,-0.05213 0.183145,-0.06534 0.234414,-0.201041 0.111748,-0.295804 0.392756,-0.883882 0.595263,-1.245734 0.509298,-0.910045 1.128834,-1.68314 1.835506,-2.290463 0.619267,-0.532206 1.430584,-1.119114 2.067036,-1.495297 l 0.229328,-0.135545 -0.129078,-0.154172 c -0.07099,-0.08479 -0.221785,-0.239116 -0.335093,-0.342944 -0.166671,-0.152721 -0.233186,-0.19285 -0.348299,-0.210109 -0.570496,-0.08555 -1.56538,0.365664 -2.540851,1.15237 -1.91277,1.542627 -3.430342,4.077957 -3.023613,5.051397 0.0407,0.0974 0.417963,0.489368 0.47155,0.48993 0.01466,1.54e-4 0.111006,-0.08329 0.214103,-0.185434 z m 3.747123,-3.341521 c 0.539232,-0.344943 1.276405,-0.618097 1.973444,-0.73125 0.366434,-0.05949 1.135693,-0.05658 1.527875,0.0058 0.173201,0.02756 0.32221,0.04276 0.331132,0.03383 0.06019,-0.06019 -0.661291,-0.293825 -1.006419,-0.325897 -0.119557,-0.01109 -0.217377,-0.03383 -0.217377,-0.05046 0,-0.01665 0.0503,-0.08057 0.111788,-0.142049 0.06148,-0.06148 0.10497,-0.118604 0.09664,-0.126936 -0.0267,-0.02671 -0.438032,0.05684 -0.68209,0.138544 -0.130008,0.04352 -0.361976,0.143995 -0.515484,0.22328 -0.153508,0.07928 -0.286695,0.136559 -0.295973,0.127283 -0.0093,-0.0093 0.01859,-0.10463 0.0619,-0.211892 0.08995,-0.222682 0.08653,-0.223637 -0.194863,-0.05436 -0.273143,0.164315 -0.62634,0.44013 -0.957657,0.747845 -0.28349,0.263284 -0.473639,0.476579 -0.42487,0.476579 0.01072,0 0.0971,-0.04964 0.191947,-0.110318 z M 57.231048,11.08984 V 7.6412935 h 0.71126 0.71124 l 0.0204,0.08152 c 0.0388,0.154588 -0.01,0.719647 -0.0858,1.0010592 -0.0561,0.207185 -0.0656,0.284827 -0.0384,0.312043 0.0199,0.01993 0.0499,0.02784 0.0665,0.01755 0.0166,-0.01029 0.10946,-0.179169 0.20629,-0.375321 0.28505,-0.5773982 0.5875,-0.8842572 1.05871,-1.0741352 0.15943,-0.06424 0.23526,-0.07314 0.62439,-0.07329 0.3798,-1.6e-4 0.47281,0.01015 0.65255,0.07229 0.42691,0.147565 0.74153,0.39085 0.99357,0.768295 0.30006,0.4493622 0.44886,0.9945272 0.47863,1.7535745 0.0311,0.791847 -0.0681,1.34645 -0.34175,1.911041 -0.13354,0.275564 -0.19893,0.368342 -0.40176,0.57002 -0.40376,0.401451 -0.81627,0.555828 -1.42869,0.534672 -0.29363,-0.01015 -0.35691,-0.02311 -0.54491,-0.111563 -0.22223,-0.104559 -0.47716,-0.318102 -0.63052,-0.52815 l -0.0901,-0.12339 v 1.080442 1.08044 h -0.98079 -0.98078 z m 2.92581,0.755663 c 0.34798,-0.09661 0.55579,-0.597711 0.55375,-1.335343 -0.002,-0.8641613 -0.27446,-1.3513353 -0.75678,-1.3550743 -0.18204,-0.0014 -0.30666,0.05794 -0.43955,0.209295 -0.12802,0.145806 -0.17239,0.234223 -0.26257,0.523213 -0.0612,0.1960923 -0.0739,0.3059523 -0.0736,0.6327653 4.7e-4,0.556896 0.1214,0.926775 0.38348,1.174683 0.18557,0.175528 0.35274,0.217787 0.59524,0.150461 z m -35.038694,1.3022 c -0.231466,-0.03064 -0.383823,-0.08164 -0.638671,-0.213871 -0.564267,-0.292757 -0.848682,-0.902405 -0.753756,-1.615683 0.06069,-0.456384 0.197327,-0.737403 0.497667,-1.023821 0.458972,-0.4377063 1.17782,-0.6281603 2.211419,-0.5859073 0.26291,0.01076 0.501379,0.02849 0.529937,0.03949 0.04324,0.01661 0.05192,-0.0033 0.05192,-0.119123 0,-0.178945 -0.111611,-0.400442 -0.247142,-0.490477 -0.409612,-0.272106 -1.394131,-0.113977 -2.424836,0.389464 -0.155813,0.07611 -0.287756,0.138381 -0.293188,0.138381 -0.0058,0 -0.0058,-0.366605 -8.27e-4,-0.814679 l 0.0084,-0.8146852 0.253104,-0.100844 c 0.345409,-0.137628 0.750126,-0.251618 1.185377,-0.333873 0.492954,-0.09317 1.549017,-0.102098 1.867696,-0.01582 0.725586,0.196489 1.240153,0.719871 1.454711,1.4796242 0.136722,0.484143 0.157558,0.805833 0.158211,2.4431733 l 5.12e-4,1.542356 h -0.74008 -0.740064 l -0.02439,-0.087 c -0.01339,-0.04785 -0.03274,-0.35751 -0.04299,-0.688127 -0.01753,-0.566019 -0.02216,-0.601123 -0.07954,-0.601123 -0.04705,0 -0.0842,0.05946 -0.162403,0.259726 -0.234534,0.600525 -0.6953,1.02194 -1.270158,1.161696 -0.239065,0.05812 -0.58206,0.08003 -0.800471,0.05113 z m 0.998104,-1.379033 c 0.223108,-0.05779 0.379094,-0.154733 0.574024,-0.356728 0.15597,-0.161619 0.325632,-0.432073 0.326103,-0.519836 2.48e-4,-0.0499 -0.04018,-0.05536 -0.409446,-0.05536 -0.468398,0 -0.681385,0.03593 -0.896125,0.151262 -0.193739,0.104035 -0.27604,0.23565 -0.27604,0.441422 0,0.32961 0.245977,0.452065 0.681484,0.339248 z m 10.961325,1.378452 c -1.072542,-0.110912 -1.879792,-0.739114 -2.196453,-1.70926 -0.139401,-0.427128 -0.16046,-0.587218 -0.158095,-1.202246 0.0025,-0.6691453 0.04705,-0.8970893 0.262248,-1.3446213 0.241521,-0.5021792 0.567583,-0.8324972 1.064059,-1.0779292 0.485025,-0.239767 0.688181,-0.279648 1.423714,-0.27947 0.534477,1.27e-4 0.677838,0.01067 0.922955,0.06781 0.329998,0.07693 0.694399,0.222143 0.880424,0.350843 l 0.126552,0.08755 0.0084,0.9516612 0.0084,0.951657 -0.241553,-0.126577 c -0.785613,-0.411656 -1.77716,-0.522545 -2.299896,-0.2572 -0.440659,0.223682 -0.628535,0.6557423 -0.477692,1.0984793 0.261687,0.768001 1.710949,0.825486 2.867942,0.113766 l 0.150273,-0.09244 v 0.899086 0.899087 l -0.118639,0.098 c -0.149852,0.123783 -0.624674,0.358305 -0.893777,0.441449 -0.394117,0.121777 -0.916373,0.173013 -1.328796,0.130362 z M 15.120775,10.346346 V 7.6412935 h 0.724707 0.724706 l 0.02223,0.161427 c 0.03002,0.218068 -0.0078,0.584402 -0.09456,0.9175692 -0.03943,0.151339 -0.06072,0.292892 -0.04735,0.31455 0.03894,0.063 0.125572,0.0083 0.164349,-0.10388 0.01962,-0.05679 0.11276,-0.257447 0.206939,-0.4459282 0.216055,-0.432401 0.462105,-0.698382 0.786589,-0.850317 0.184693,-0.08648 0.262278,-0.103791 0.514833,-0.114879 0.566082,-0.02485 0.938199,0.126773 1.236136,0.50369 0.151753,0.191983 0.245369,0.435732 0.288838,0.7520702 0.01826,0.133075 0.04648,0.25558 0.06273,0.272237 0.04519,0.04641 0.108019,-0.03874 0.185616,-0.251749 0.22708,-0.6233192 0.638655,-1.0741402 1.116377,-1.2228232 0.216074,-0.06725 0.653038,-0.07848 0.916418,-0.02358 0.613114,0.127854 1.037832,0.584715 1.232232,1.3254722 0.06863,0.261561 0.07094,0.322425 0.08219,2.2225763 l 0.01158,1.95365 h -0.96521 -0.965198 l -0.01033,-1.700544 c -0.0093,-1.5342153 -0.01578,-1.7148013 -0.06623,-1.8462713 -0.132281,-0.344821 -0.474256,-0.462269 -0.708905,-0.243472 -0.0992,0.0925 -0.209266,0.308192 -0.280204,0.549109 -0.04853,0.164726 -0.05694,0.3778253 -0.06804,1.7146423 l -0.01263,1.526536 h -0.978622 -0.978611 v -1.603036 c 0,-1.026893 -0.01257,-1.6751113 -0.03491,-1.8035643 -0.05831,-0.334888 -0.205527,-0.486926 -0.475059,-0.490646 -0.163508,-0.0023 -0.266921,0.07229 -0.395805,0.285305 -0.206252,0.340905 -0.215362,0.425416 -0.226516,2.1012243 l -0.01003,1.510718 h -0.979088 -0.979088 z m 14.490234,-0.0033 c 0,-2.5673365 0.0033,-2.7072145 0.0554,-2.6849255 0.471705,0.20034 1.226271,0.220589 1.732322,0.04651 l 0.173879,-0.05982 V 10.34816 13.051513 H 30.591828 29.611046 Z M 32.205333,9.5238407 V 5.9961985 h 0.980782 0.980774 v 3.5276482 3.5276423 h -0.980774 -0.980782 z m 7.846241,0 V 5.9962055 h 0.850542 0.850522 l 0.0218,0.07119 c 0.012,0.03916 0.0298,0.286848 0.0395,0.550439 0.0152,0.413799 -0.008,0.820051 -0.0687,1.212955 -0.0445,0.287549 -0.1091,0.567951 -0.19359,0.8389292 -0.0451,0.144786 -0.0771,0.289417 -0.0709,0.321405 0.0231,0.12011 0.10803,0.05267 0.22551,-0.179122 0.33834,-0.6675982 0.57232,-0.9370922 0.99572,-1.1468982 0.25238,-0.12506 0.27809,-0.13103 0.61774,-0.143493 1.10169,-0.04042 1.6666,0.511661 1.82213,1.7807792 0.0215,0.175688 0.0349,0.9481713 0.035,2.0169303 v 1.732181 h -0.97949 -0.97951 l -0.009,-1.732181 c -0.009,-1.6974953 -0.0105,-1.7351443 -0.0774,-1.8797993 -0.10219,-0.22108 -0.30942,-0.326603 -0.54395,-0.276986 -0.14031,0.02966 -0.3327,0.221989 -0.41616,0.415989 -0.1419,0.329887 -0.1581,0.5400433 -0.1581,2.0520473 v 1.42093 H 41.032347 40.051565 V 9.5238577 Z m 5.758124,0.8225883 c 0,-1.4877793 0.004,-2.7050525 0.009,-2.7050525 0.005,0 0.09,0.02844 0.18894,0.06324 0.44227,0.155443 1.15395,0.156987 1.5885,0.0033 0.10381,-0.03668 0.1928,-0.06668 0.19774,-0.06668 0.005,0 0.009,1.2172732 0.009,2.7050525 v 2.705056 h -0.99657 -0.9966 z m 2.62597,0 V 7.6413825 h 0.72706 0.72708 l 0.0206,0.08177 c 0.037,0.147279 -0.01,0.687317 -0.0847,0.9860412 -0.0575,0.228491 -0.0654,0.301047 -0.0356,0.330846 0.0561,0.05612 0.10902,-0.01202 0.2261,-0.291326 0.23686,-0.5650322 0.5322,-0.9270842 0.90666,-1.1114282 0.19138,-0.09422 0.24847,-0.106753 0.53439,-0.117335 0.86554,-0.03205 1.39315,0.401409 1.51807,1.2471462 0.0218,0.147752 0.0484,0.277275 0.0589,0.28783 0.0358,0.03579 0.10715,-0.05341 0.16311,-0.203839 0.21335,-0.5734962 0.55566,-1.0025092 0.95888,-1.2017962 0.22233,-0.109879 0.26189,-0.118786 0.57328,-0.129126 0.97879,-0.03252 1.56986,0.457852 1.77286,1.4708052 0.0604,0.301515 0.0644,0.436756 0.0644,2.1909383 v 1.869583 h -0.96495 -0.96497 v -1.638511 c 0,-1.7208513 -0.0108,-1.8736743 -0.14688,-2.0813833 -0.11068,-0.168914 -0.39367,-0.233442 -0.55633,-0.126862 -0.11135,0.07295 -0.22953,0.259465 -0.31597,0.498637 -0.0712,0.19692 -0.0725,0.22559 -0.0816,1.7741493 l -0.009,1.573992 h -0.99522 -0.99521 v -1.659442 c 0,-1.098539 -0.0119,-1.7149043 -0.0351,-1.8235283 -0.061,-0.284706 -0.2988,-0.464296 -0.55084,-0.416116 -0.11286,0.02157 -0.27231,0.18534 -0.35805,0.367724 -0.15306,0.325638 -0.16228,0.441038 -0.16279,2.0364623 l -4.6e-4,1.4949 h -0.99662 -0.9966 z M 30.217063,7.4682485 c -0.508193,-0.115618 -0.824796,-0.404193 -0.82683,-0.753627 -0.0033,-0.489045 0.716243,-0.865401 1.449304,-0.75856 0.899672,0.131129 1.255226,0.828239 0.653935,1.282124 -0.299034,0.225723 -0.855008,0.325934 -1.276409,0.230063 z m 16.258385,0.01048 c -0.1951,-0.03233 -0.47099,-0.150043 -0.62241,-0.265541 -0.056,-0.04267 -0.14018,-0.15622 -0.18721,-0.252352 -0.10091,-0.20624 -0.0911,-0.36995 0.0335,-0.559104 0.36226,-0.549957 1.56793,-0.623557 2.08244,-0.127124 0.16074,0.155088 0.21095,0.258107 0.21095,0.432814 0,0.197452 -0.0603,0.326021 -0.22058,0.470709 -0.30319,0.273594 -0.78534,0.385367 -1.29669,0.300598 z M 23.125206,6.0153905 c -0.359978,-0.08004 -0.679235,-0.324301 -0.840761,-0.643263 l -0.09256,-0.182791 -0.0096,-0.97287 -0.0096,-0.972874 h 0.333892 0.333884 v 0.785209 c 0,0.904256 0.02389,1.044153 0.205471,1.203588 0.30626,0.268896 0.731233,0.174416 0.905162,-0.201243 0.05225,-0.112887 0.0587,-0.216248 0.05928,-0.957051 l 6.2e-4,-0.830503 h 0.350834 0.350825 l -0.01075,0.941232 -0.01075,0.941233 -0.0997,0.210436 c -0.172076,0.3632 -0.462163,0.592819 -0.853759,0.675785 -0.257229,0.0545 -0.378738,0.05512 -0.612627,0.0033 z m -8.004431,-1.39554 v -1.376258 h 0.348019 0.348019 v 1.376258 1.376254 h -0.348019 -0.348019 z m 1.397898,0.419203 0.01,-0.957052 0.08505,-0.181465 c 0.361298,-0.770907 1.476659,-0.94907 2.091619,-0.334113 0.08395,0.08395 0.190915,0.234302 0.237688,0.334113 l 0.08505,0.181465 0.01,0.957052 0.01,0.957051 h -0.348691 -0.348696 l -0.0093,-0.880345 -0.0093,-0.880349 -0.08418,-0.127123 c -0.216954,-0.327642 -0.722008,-0.327642 -0.938967,0 l -0.08418,0.127123 -0.0093,0.880349 -0.0093,0.880345 h -0.348991 -0.348696 z m 3.69583,-0.102823 v -1.059874 h -0.411296 -0.41129 v -0.316351 -0.316385 h 1.170608 1.170607 v 0.316385 0.316379 H 21.321837 20.91054 v 1.059874 1.059874 h -0.348015 -0.348022 z m 5.188647,-0.31638 v -1.376258 h 0.332197 0.332206 v 1.376258 1.376254 H 25.735347 25.40315 Z m 1.929923,0.31638 v -1.059874 h -0.411299 -0.411298 v -0.316351 -0.316385 h 1.17061 1.170611 v 0.316385 0.316379 h -0.411299 -0.411289 v 1.059874 1.059874 h -0.348023 -0.348013 z"
     id="path302"
     sodipodi:nodetypes="csscsssssssscsssssssscsscssscssssssccsssssssssssscsssssssssccssssssssscssssssssssssssssssssssssssscsssscccsssscccccsssssssssssssscsssssssssssscssssssssssscssssssssssssccccssssssccsssssssccccccsccsscsscsssssssssscsscsccccsssssccsscsssssssssssscccsssscccssssccccssssssssssssssscccssssscccsssssccccssscccccsccccccccccccccssssssssccccssssscccccsssssscccsccccssssssssssssscccssssscccsssscccccssssssssssssssscccccsssscccccsssscccccccccccssscccccccssccccccccccccccccccccccccccccccccccccccccccccccccc" /></svg>
