<?xml version="1.0" encoding="UTF-8" standalone="no"?>
<svg
   fill="#000000"
   viewBox="0 0 62.635883 16.22892"
   width="313.17941"
   height="81.1446"
   version="1.1"
   id="svg4"
   sodipodi:docname="django.svg"
   inkscape:version="1.2.1 (9c6d41e410, 2022-07-14)"
   xml:space="preserve"
   xmlns:inkscape="http://www.inkscape.org/namespaces/inkscape"
   xmlns:sodipodi="http://sodipodi.sourceforge.net/DTD/sodipodi-0.dtd"
   xmlns="http://www.w3.org/2000/svg"
   xmlns:svg="http://www.w3.org/2000/svg"><defs
     id="defs8" /><sodipodi:namedview
     id="namedview6"
     pagecolor="#ffffff"
     bordercolor="#000000"
     borderopacity="0.25"
     inkscape:showpageshadow="2"
     inkscape:pageopacity="0.0"
     inkscape:pagecheckerboard="0"
     inkscape:deskcolor="#d1d1d1"
     showgrid="false"
     inkscape:zoom="1.564"
     inkscape:cx="124.36061"
     inkscape:cy="-33.887468"
     inkscape:window-width="3440"
     inkscape:window-height="1347"
     inkscape:window-x="0"
     inkscape:window-y="0"
     inkscape:window-maximized="1"
     inkscape:current-layer="svg4" /><path
     d="M 13.879965,0.77779662 V 4.4479226 c -0.35396,-0.09109 -0.77888,-0.121998 -1.16407,-0.121998 -2.48031,0 -4.0801797,1.555239 -4.0801797,3.951401 0,2.4881214 1.5078597,3.7818764 4.4071997,3.7853464 0.96818,0 1.86504,-0.08865 3.08047,-0.318552 V 0.77779662 Z m 3.64471,0.01186 V 3.2008246 h 2.37389 V 0.78965662 Z m 0,3.46679498 v 4.871474 c 0,2.0456734 -0.10643,2.8241204 -0.44564,3.4956004 -0.32359,0.656733 -0.83112,1.085734 -1.87911,1.572427 l 2.20275,1.038684 c 1.048,-0.521395 1.55493,-0.992351 1.94012,-1.740175 0.41208,-0.777322 0.55238,-1.679272 0.55238,-3.5549064 v -5.683103 z m 30.642,0 c -2.43694,0 -3.95724,1.528522 -3.96157,3.980207 0,2.3614604 1.47316,3.8277074 3.86498,3.8277074 2.42219,0 3.94293,-1.526325 3.94293,-3.9632614 0,-2.377076 -1.45799,-3.844653 -3.84634,-3.844653 z m -23.84227,0.06947 c -1.04973,0 -2.0106,0.21484 -3.01608,0.699798 l 0.003,1.811341 c 0.88837,-0.471078 1.83398,-0.715047 2.6755,-0.715047 0.57432,0 0.78282,0.154395 0.78282,0.579493 v 0.515105 c -2.79349,0.241178 -3.93106,1.001868 -3.93106,2.645 0,1.5190734 0.8567,2.2027534 2.7653,2.2027534 0.94389,0 2.23055,-0.108294 3.24991,-0.259247 V 7.0488646 c 0,-0.973387 -0.0616,-1.429526 -0.25247,-1.779147 -0.34008,-0.624633 -1.10786,-0.943795 -2.27731,-0.943795 z m 7.66389,0 c -1.16945,0 -2.32409,0.165945 -3.72604,0.53205 v 7.1115054 h 2.3705 V 6.3846496 c 0.47715,-0.138807 0.76844,-0.167748 1.09291,-0.167748 0.84585,0 1.24201,0.335551 1.24201,1.236931 v 4.5156444 h 2.28747 V 7.3606386 c 0,-1.173789 -0.15706,-1.724166 -0.64896,-2.226475 -0.52227,-0.532673 -1.40246,-0.808241 -2.61789,-0.808242 z m 9.42779,0.01356 c -3.46412,0 -5.42217,1.508107 -5.42217,4.180148 0,2.1515154 1.32203,3.5108514 3.40241,3.5108514 0.61422,-10e-7 1.07869,-0.09295 1.54023,-0.320247 v 0.04405 c 0,1.494782 -0.66336,2.121422 -2.21801,2.121422 -0.88055,0 -1.71139,-0.196716 -2.54163,-0.623549 h -0.002 v 2.170559 c 0.83111,0.320992 1.63121,0.457496 2.55688,0.457496 1.81838,0 3.09873,-0.566251 3.83788,-1.709677 0.50664,-0.779924 0.67777,-1.725983 0.67777,-3.741292 V 9.7887536 c -0.0156,-0.320992 -0.0149,-0.641442 -0.0305,-0.962433 l -0.0153,-1.282681 -0.0305,-0.992933 v -0.245692 c 0.47629,0.04511 -0.10291,-0.05707 0.52866,0.06439 l 0.81332,-1.694425 c -1.13908,-0.2299 -2.07977,-0.335497 -3.0974,-0.335497 z m 6.7167,1.789314 c 0.91613,0 1.44196,0.755538 1.44196,2.028228 0,1.287438 -0.54021,2.0299224 -1.45721,2.0299224 -0.92914,0 -1.47584,-0.7424844 -1.47584,-2.0299224 0,-1.287438 0.54286,-2.028228 1.49109,-2.028228 z m -35.18475,0.08811 c 0.29271,0 0.65282,0.03128 0.93023,0.121999 v 3.7717914 c -0.33921,0.04511 -0.68262,0.061 -0.94548,0.061 -1.21543,0 -1.87912,-0.6908514 -1.87912,-1.9401174 0,-1.283101 0.69369,-2.014672 1.89437,-2.014672 z m 27.69538,0.01525 h 0.17114 0.0763 v 0.181303 l 0.0153,0.777741 0.0153,1.084433 c 0,0.320125 0.0153,0.626423 0.0153,0.901435 v 0.640492 0.171137 c -0.30538,0.09109 -0.56767,0.1508044 -0.89127,0.1508044 -1.04799,0 -1.63512,-0.6731344 -1.63512,-1.8469234 0,-0.823301 0.29253,-1.403933 0.86077,-1.724926 0.36957,-0.229899 0.91095,-0.350244 1.37248,-0.335496 z m -15.77001,2.516222 v 1.5673444 c -0.44245,0.07548 -0.75453,0.106749 -1.0946,0.106749 -0.62204,0 -0.90314,-0.213837 -0.90314,-0.6692984 0,-0.60815 0.49081,-0.853842 1.99774,-1.004795 z"
     id="path2"
     style="stroke-width:0.867546" /></svg>
