<?xml version="1.0" encoding="UTF-8" standalone="no"?>
<svg
   fill="#000000"
   viewBox="0 0 62.635883 16.22892"
   width="313.17941"
   height="81.1446"
   version="1.1"
   id="svg4"
   sodipodi:docname="stripe.svg"
   inkscape:version="1.2.1 (9c6d41e410, 2022-07-14)"
   xml:space="preserve"
   xmlns:inkscape="http://www.inkscape.org/namespaces/inkscape"
   xmlns:sodipodi="http://sodipodi.sourceforge.net/DTD/sodipodi-0.dtd"
   xmlns="http://www.w3.org/2000/svg"
   xmlns:svg="http://www.w3.org/2000/svg"><defs
     id="defs8" /><sodipodi:namedview
     id="namedview6"
     pagecolor="#ffffff"
     bordercolor="#000000"
     borderopacity="0.25"
     inkscape:showpageshadow="2"
     inkscape:pageopacity="0.0"
     inkscape:pagecheckerboard="0"
     inkscape:deskcolor="#d1d1d1"
     showgrid="false"
     inkscape:zoom="3.128"
     inkscape:cx="92.551151"
     inkscape:cy="82.480818"
     inkscape:window-width="3440"
     inkscape:window-height="1347"
     inkscape:window-x="0"
     inkscape:window-y="0"
     inkscape:window-maximized="1"
     inkscape:current-layer="svg4" /><g
     style="fill:#000000"
     id="g304"
     transform="matrix(0.45080334,0,0,0.45080334,19.051461,-3.1556236)"><path
       d="M 5,7 C 2.25,7 0,9.25 0,12 v 26 c 0,2.75 2.25,5 5,5 h 40 c 2.75,0 5,-2.25 5,-5 V 12 C 50,9.25 47.75,7 45,7 Z m 0,2 h 40 c 1.667969,0 3,1.332031 3,3 v 26 c 0,1.667969 -1.332031,3 -3,3 H 5 C 3.332031,41 2,39.667969 2,38 V 12 C 2,10.332031 3.332031,9 5,9 Z m 20.90625,9 c -0.621094,0.125 -1.09375,0.683594 -1.09375,1.34375 0,0.746094 0.617188,1.34375 1.375,1.34375 0.746094,0 1.34375,-0.597656 1.34375,-1.34375 C 27.53125,18.585938 26.933594,18 26.1875,18 26.09375,18 25.996094,17.98047 25.90625,18 Z M 16.8125,19.1875 14.625,19.5625 14.3125,21.5 13.53125,21.625 13.25,23.40625 h 1.0625 v 3.75 c 0,0.972656 0.242188,1.617188 0.75,2.03125 0.425781,0.34375 1.015625,0.53125 1.875,0.53125 0.664063,0 1.09375,-0.117187 1.375,-0.1875 V 27.5 c -0.15625,0.03906 -0.511719,0.125 -0.75,0.125 -0.507812,0 -0.75,-0.253906 -0.75,-0.84375 v -3.375 h 1.34375 L 18.46875,21.5 H 16.8125 Z m -6.65625,2.15625 C 9.285156,21.34375 8.582031,21.574219 8.0625,22 7.523438,22.445313 7.25,23.066406 7.25,23.84375 c 0,1.40625 0.851563,2.023438 2.25,2.53125 0.902344,0.320313 1.1875,0.554688 1.1875,0.90625 0,0.34375 -0.285156,0.53125 -0.8125,0.53125 -0.652344,0 -1.734375,-0.335937 -2.4375,-0.75 L 7.125,29 c 0.601563,0.34375 1.714844,0.71875 2.875,0.71875 0.921875,0 1.703125,-0.242187 2.21875,-0.65625 0.578125,-0.457031 0.875,-1.132812 0.875,-2 0,-1.4375 -0.863281,-2.023437 -2.28125,-2.53125 -0.757812,-0.28125 -1.1875,-0.5 -1.1875,-0.84375 0,-0.289062 0.230469,-0.4375 0.65625,-0.4375 0.777344,0 1.578125,0.292969 2.125,0.5625 l 0.3125,-1.9375 c -0.433594,-0.207031 -1.332031,-0.53125 -2.5625,-0.53125 z m 22.90625,0 c -0.746094,0 -1.390625,0.316406 -2,0.96875 L 30.9375,21.5 H 28.65625 V 32.53125 L 31.25,32.09375 v -2.5625 c 0.394531,0.125 0.792969,0.1875 1.15625,0.1875 0.640625,0 1.554688,-0.183594 2.28125,-0.96875 0.695313,-0.757812 1.0625,-1.925781 1.0625,-3.46875 0,-1.367187 -0.261719,-2.398437 -0.78125,-3.0625 -0.457031,-0.589844 -1.097656,-0.875 -1.90625,-0.875 z m 7.21875,0 c -2.183594,0 -3.5625,1.628906 -3.5625,4.21875 0,1.449219 0.378906,2.527344 1.09375,3.21875 0.640625,0.621094 1.558594,0.9375 2.75,0.9375 1.097656,0 2.109375,-0.261719 2.75,-0.6875 l -0.28125,-1.75 c -0.632812,0.34375 -1.359375,0.5 -2.1875,0.5 -0.496094,0 -0.847656,-0.09375 -1.09375,-0.3125 -0.269531,-0.226562 -0.417969,-0.597656 -0.46875,-1.125 h 4.25 c 0.01172,-0.125 0.03125,-0.71875 0.03125,-0.90625 0,-1.285156 -0.296875,-2.285156 -0.84375,-3 -0.558594,-0.726562 -1.371094,-1.09375 -2.4375,-1.09375 z m -16.875,0.03125 c -0.726562,0 -1.304687,0.378906 -1.53125,1.0625 L 21.71875,21.5 h -2.25 v 8.0625 h 2.5625 v -5.25 c 0.320313,-0.394531 0.785156,-0.53125 1.40625,-0.53125 0.136719,0 0.261719,0 0.4375,0.03125 v -2.375 C 23.699219,21.398438 23.5625,21.375 23.40625,21.375 Z M 24.875,21.5 v 8.0625 h 2.59375 V 21.5 Z m 15.15625,1.59375 c 0.06641,-0.01563 0.113281,0 0.1875,0 0.578125,0 0.898438,0.546875 0.9375,1.6875 H 39.25 c 0.0625,-1.003906 0.324219,-1.570312 0.78125,-1.6875 z m -7.8125,0.21875 c 0.652344,0 0.96875,0.683594 0.96875,2.0625 0,0.785156 -0.105469,1.398438 -0.34375,1.8125 -0.207031,0.394531 -0.535156,0.59375 -0.90625,0.59375 -0.257812,0 -0.480469,-0.05469 -0.6875,-0.15625 v -3.8125 c 0.433594,-0.457031 0.824219,-0.5 0.96875,-0.5 z"
       id="path295" /></g></svg>
